<svg xmlns="http://www.w3.org/2000/svg" xml:space="preserve" viewBox="0 0 162 140">
	<path d="M4 4h126v132H4z" style="fill:none;stroke:#579a42;stroke-width:1px"/>
	<path d="M97.298 110H67.469c2.192-6.235 3.973-10.979 3.973-27.245V64.863H27.457v16.808c0 16.13 2.056 22.365 3.837 28.329H8c1.781-4.744 3.974-10.979 3.974-26.161v-49.61c0-14.504-2.33-21.552-3.974-26.161h23.568c-1.781 4.744-4.111 10.437-4.111 23.314v20.604h43.985V33.958c0-13.962-2.192-20.468-3.973-25.89H90.9l-.005.014L97.846 8c-2.466 6.8-4.111 11.288-4.111 25.296v19.992l26.446-31.96c6.577-7.752 7.125-10.064 7.948-13.328h26.034c-6.714 4.896-14.798 11.968-24.253 23.392l-18.498 21.896 34.941 43.656c3.837 4.76 4.659 5.984 11.647 12.92l-25.076.136c-1.37-4.896-2.877-9.928-11.098-19.856L93.735 55.056v29.376c0 11.424 2.33 21.216 3.563 25.568Z" style="fill:#eee8d5"/>
	<path d="m10.926 117.308 3.061 11.118 3.104-11.118h3.001l3.12 11.052 3.253-11.052h2.674l-4.62 14.108h-2.778l-3.238-10.92-3.135 10.92H12.59L8 117.308h2.926ZM38.29 116.992c1.129 0 2.223.235 3.283.705s1.867 1.078 2.421 1.824c.535.712.892 1.541 1.07 2.49.158.65.238 1.686.238 3.108H33.64c.05 1.432.431 2.58 1.144 3.445.713.865 1.817 1.297 3.313 1.297 1.396 0 2.51-.408 3.342-1.225a4.007 4.007 0 0 0 1.01-1.646h2.63c-.07.518-.3 1.095-.691 1.732-.391.637-.829 1.157-1.315 1.561-.812.702-1.817 1.177-3.015 1.422-.644.141-1.372.211-2.184.211-1.981 0-3.659-.639-5.036-1.916-1.377-1.278-2.065-3.067-2.065-5.368 0-2.266.693-4.105 2.08-5.519 1.386-1.414 3.199-2.121 5.437-2.121Zm4.263 6.244c-.109-1.028-.361-1.849-.757-2.463-.733-1.142-1.956-1.713-3.67-1.713-1.228 0-2.258.393-3.089 1.179-.832.786-1.273 1.785-1.323 2.997h8.839ZM48.377 112h2.599v7.021a5.84 5.84 0 0 1 2.095-1.548 6.51 6.51 0 0 1 2.644-.533c1.981 0 3.588.603 4.821 1.811 1.233 1.207 1.849 2.988 1.849 5.341 0 2.23-.609 4.083-1.827 5.559-1.218 1.475-2.907 2.213-5.066 2.213-1.208 0-2.228-.26-3.06-.778-.495-.307-1.025-.799-1.589-1.475v1.805h-2.466V112Zm6.952 17.769c1.446 0 2.528-.509 3.246-1.528.718-1.018 1.077-2.362 1.077-4.03 0-1.485-.359-2.714-1.077-3.689-.718-.974-1.775-1.462-3.172-1.462a4.72 4.72 0 0 0-3.201 1.199c-.916.799-1.374 2.116-1.374 3.952 0 1.326.188 2.401.564 3.227.703 1.554 2.016 2.331 3.937 2.331ZM67.094 126.99c.079.79.302 1.396.669 1.818.673.764 1.842 1.146 3.506 1.146.99 0 1.861-.191 2.614-.573.753-.382 1.129-.973 1.129-1.772 0-.606-.302-1.067-.906-1.383-.386-.193-1.149-.417-2.288-.672l-2.124-.474c-1.357-.299-2.357-.632-3.001-1.001-1.149-.641-1.723-1.528-1.723-2.661 0-1.335.542-2.415 1.627-3.24 1.084-.826 2.542-1.238 4.374-1.238 2.397 0 4.125.623 5.185 1.87.663.79.985 1.642.966 2.555h-2.526a2.566 2.566 0 0 0-.639-1.462c-.614-.623-1.678-.935-3.194-.935-1.01 0-1.775.171-2.295.514-.52.342-.78.794-.78 1.356 0 .615.342 1.107 1.025 1.476.397.219.981.412 1.753.579l1.768.382c1.921.413 3.209.813 3.862 1.199 1.04.606 1.56 1.559 1.56 2.858 0 1.256-.537 2.341-1.611 3.254-1.075.913-2.712 1.37-4.91 1.37-2.367 0-4.043-.477-5.029-1.429-.985-.953-1.512-2.132-1.582-3.537h2.57ZM80.716 117.374h2.719v14.042h-2.719v-14.042Zm0-5.308h2.719v2.687h-2.719v-2.687ZM88.01 113.37h2.704v3.938h2.54v1.937h-2.54v9.207c0 .492.188.821.565.988.208.096.554.145 1.039.145.129 0 .268-.002.416-.007.149-.004.322-.015.52-.033v1.871a6.624 6.624 0 0 1-.958.171c-.332.035-.691.053-1.077.053-1.248 0-2.094-.284-2.54-.85-.446-.566-.669-1.302-.669-2.206v-9.339h-2.154v-1.937h2.154v-3.938ZM102.554 116.992c1.129 0 2.223.235 3.283.705 1.059.47 1.867 1.078 2.421 1.824.535.712.891 1.541 1.07 2.49.158.65.237 1.686.237 3.108H97.904c.05 1.432.431 2.58 1.144 3.445.713.865 1.817 1.297 3.313 1.297 1.396 0 2.51-.408 3.342-1.225a4.017 4.017 0 0 0 1.01-1.646h2.63c-.07.518-.3 1.095-.691 1.732-.391.637-.83 1.157-1.315 1.561-.812.702-1.817 1.177-3.016 1.422-.643.141-1.371.211-2.183.211-1.981 0-3.66-.639-5.036-1.916-1.377-1.278-2.065-3.067-2.065-5.368 0-2.266.693-4.105 2.08-5.519 1.386-1.414 3.199-2.121 5.437-2.121Zm4.263 6.244c-.109-1.028-.361-1.849-.757-2.463-.733-1.142-1.956-1.713-3.67-1.713-1.228 0-2.258.393-3.09 1.179-.831.786-1.272 1.785-1.322 2.997h8.839ZM114.438 126.99c.079.79.302 1.396.668 1.818.674.764 1.842 1.146 3.506 1.146.991 0 1.862-.191 2.615-.573.752-.382 1.129-.973 1.129-1.772 0-.606-.302-1.067-.906-1.383-.387-.193-1.149-.417-2.288-.672l-2.124-.474c-1.357-.299-2.357-.632-3.001-1.001-1.149-.641-1.723-1.528-1.723-2.661 0-1.335.542-2.415 1.626-3.24 1.085-.826 2.543-1.238 4.375-1.238 2.397 0 4.125.623 5.185 1.87.663.79.985 1.642.965 2.555h-2.525a2.58 2.58 0 0 0-.639-1.462c-.614-.623-1.679-.935-3.194-.935-1.01 0-1.775.171-2.295.514-.52.342-.78.794-.78 1.356 0 .615.342 1.107 1.025 1.476.396.219.981.412 1.753.579l1.768.382c1.921.413 3.209.813 3.862 1.199 1.04.606 1.56 1.559 1.56 2.858 0 1.256-.537 2.341-1.612 3.254-1.074.913-2.711 1.37-4.909 1.37-2.367 0-4.044-.477-5.029-1.429-.985-.953-1.513-2.132-1.582-3.537h2.57Z" style="fill:#2ec500"/>
</svg>
