<svg viewBox="0 0 296 209" width="84" height="60" xmlns="http://www.w3.org/2000/svg" fill-rule="evenodd" clip-rule="evenodd" stroke-linejoin="round" stroke-miterlimit="2" focusable="false"><title>Logo HKweb.nl</title><path d="M295.875 206.672c-7.901-7.306-15.94-14.463-23.777-21.836-6.535-6.153-12.897-12.486-19.255-18.83-2.478-2.479-2.349-4.968-.268-7.965 6.641-9.564 13.027-19.297 19.414-29.02.657-1.006-2.108-3.42-3.06-2.616-1.865 1.578-23.248 31.922-33.31 44.642-33.002 44.26-61.227-22.866-49.44-73.354C192.82 79.275 221.947.742 203.127 0c-1.95-.075-13.133 9.998-21.14 43.158-5.444 22.538-7.17 45.584-7.403 68.768-.032 3.22-1.102 6.683-2.33 9.553-10.592 24.688-37.938 45.426-38.023 44.792-2.255-16.755-5.412-36.47-6.683-53.303-1.842-24.444-4.088-49.396-5.772-73.86-2.097-30.587-9.902-39.883-13.938-1.84 4.938 5.737 6.4-17.904 7.69-13.362 5.327 47.157 4.797 93.904 11.747 142.97-5.923-2.9-10.202-5.339-14.732-7.145-15.368-6.121-73.83-20.777-97.216-5.179-10.405 6.929-15.8 16.438-15.293 28.48.476 11.306 9.055 17.92 18.932 21.722 13.578 5.232 27.686 5.084 41.73 2.531 19.699-3.58 37.333-12.571 54.834-21.8 3.862-2.034 9.87-5.54 13.743-7.552 1.202 4.801 1.61 8.696 2.4 12.9 1.96 10.411 8.06 4.07 7.796-1.498-.18-3.817-1.8-7.197-2.5-11.774-.567-3.706-.502-6.047 2.584-8.165 25.112-17.243 33.644-40.363 35.385-43.021 1 8.59 1.462 15.749 2.665 22.802 7.36 43.223 33.886 48.12 45.256 41.573 9.86-4.82 16.78-13.583 20.57-18.927 1.304-1.963 3.7-2.698 6.108-.315.381.37.684.64.936.838 41.57 42.982 46.537 35.337 45.385 34.27l.018.055zm-175.4-30.674c-20.758 11.424-41.766 22.644-65.706 25.255-9.95 1.08-54.117-.784-45.42-26.87 7.27-21.818 36.587-19.117 51.451-18.259 35.508 2.065 58.4 15.262 63.384 17.719 0 0-3.085 1.8-3.707 2.14l-.001.015zM201.437 7.714c3.03-5.338 2.486 8.579 2.179 12.76-1.472 20.126-8.992 38.709-15.018 57.661-1.472 4.65-3.167 9.23-5.38 13.663 1.059-29.184 4.945-57.693 18.237-84.083h-.018z"/></svg>
